<svg width="88" height="24" viewBox="0 0 88 24" fill="none" xmlns="http://www.w3.org/2000/svg">
<path d="M3 10.2V14.1875C3 16.8181 3 18.1334 3.59458 19.0984C3.92224 19.6301 4.36988 20.0778 4.90164 20.4054C5.86658 21 7.18189 21 9.8125 21H13.8C16.7998 21 18.2997 21 19.3511 20.2361C19.6907 19.9893 19.9893 19.6907 20.2361 19.3511C21 18.2997 21 16.7998 21 13.8V10.2C21 7.20021 21 5.70032 20.2361 4.64886C19.9893 4.30928 19.6907 4.01065 19.3511 3.76393C18.2997 3 16.7998 3 13.8 3H10.2C7.20021 3 5.70032 3 4.64886 3.76393C4.30928 4.01065 4.01065 4.30928 3.76393 4.64886C3 5.70032 3 7.20021 3 10.2Z" stroke="#2B2730" stroke-width="1.5"/>
<path fill-rule="evenodd" clip-rule="evenodd" d="M14.638 9.49555C14.2538 9.89017 14.2778 10.2119 14.2778 10.8986V11.9809H16.8333L16.3125 14.1455H14.2778V21H11.9444V14.1455H10V11.9809H11.9444V10.8986C11.9444 10.1423 12.0484 8.92591 12.9064 8.04465C13.8734 7.05154 15.0556 6.79439 17 7.15515V9.31974C15.4916 8.9381 14.8412 9.28681 14.638 9.49555Z" fill="#2B2730"/>
<path d="M35 18.099C47.8681 21.7976 51.0851 13.219 51.0851 8.46739L53 6.54106L51.0851 7L52.234 5L49.9362 5.77053C45.034 3.61304 43.8085 7.44001 43.8085 9.62319C41.3574 11.1642 37.6809 7.69686 36.1489 5.77053C35.5362 7.31159 36.9149 9.49476 37.6809 10.3937H35.383C35.6894 11.3184 37.8085 12.8337 38.8298 13.4758L36.9149 14.2464C37.5277 16.0957 39.7234 16.3011 40.7447 16.1727C40.4383 17.0973 36.7872 17.8422 35 18.099Z" stroke="#2B2730" stroke-width="1.5" stroke-linecap="round" stroke-linejoin="round"/>
<path d="M74.2 21H77.8C80.7998 21 82.2997 21 83.3511 20.2361C83.6907 19.9893 83.9893 19.6907 84.2361 19.3511C85 18.2997 85 16.7998 85 13.8V10.2C85 7.20021 85 5.70032 84.2361 4.64886C83.9893 4.30928 83.6907 4.01065 83.3511 3.76393C82.2997 3 80.7998 3 77.8 3H74.2C71.2002 3 69.7003 3 68.6489 3.76393C68.3093 4.01065 68.0107 4.30928 67.7639 4.64886C67 5.70032 67 7.20021 67 10.2V13.8C67 16.7998 67 18.2997 67.7639 19.3511C68.0107 19.6907 68.3093 19.9893 68.6489 20.2361C69.7003 21 71.2002 21 74.2 21Z" stroke="#2B2730" stroke-width="1.5"/>
<circle cx="76" cy="12" r="4" stroke="#2B2730" stroke-width="1.5"/>
<circle cx="81" cy="7" r="1" fill="#2B2730"/>
</svg>
